<mxfile host="app.diagrams.net" modified="2024-03-11T13:31:55.003Z" agent="Mozilla/5.0 (X11; Ubuntu; Linux x86_64; rv:123.0) Gecko/20100101 Firefox/123.0" etag="XkcBLambekr7Fa163cq_" version="24.0.4" type="device" pages="3">
  <diagram id="3228e29e-7158-1315-38df-8450db1d8a1d" name="Main">
    <mxGraphModel dx="1158" dy="2042" grid="1" gridSize="7" guides="1" tooltips="1" connect="1" arrows="1" fold="1" page="1" pageScale="1" pageWidth="1169" pageHeight="827" background="none" math="0" shadow="0">
      <root>
        <mxCell id="0" />
        <mxCell id="1" parent="0" />
        <mxCell id="9ZIgte_eGP6Cs3WeKvQb-21779" value="S" style="rounded=0;whiteSpace=wrap;html=1;glass=0;gradientDirection=east;strokeColor=#000000;fillColor=#FFFFFF;" parent="1" vertex="1">
          <mxGeometry x="357.26" y="-1155" width="512" height="256" as="geometry" />
        </mxCell>
        <mxCell id="9ZIgte_eGP6Cs3WeKvQb-21687" value="" style="rounded=0;whiteSpace=wrap;html=1;glass=1;gradientColor=#19A3FF;fillColor=#FF6666;gradientDirection=east;opacity=50;" parent="1" vertex="1">
          <mxGeometry x="357" y="-1485.38" width="512" height="256" as="geometry" />
        </mxCell>
        <mxCell id="9ZIgte_eGP6Cs3WeKvQb-21750" value="" style="ellipse;shape=doubleEllipse;whiteSpace=wrap;html=1;gradientColor=#FFFFFF;gradientDirection=radial;fillColor=#000000;opacity=50;" parent="1" vertex="1">
          <mxGeometry x="373.26" y="-1079" width="32" height="32" as="geometry" />
        </mxCell>
        <mxCell id="9ZIgte_eGP6Cs3WeKvQb-21751" value="" style="html=1;whiteSpace=wrap;shape=isoCube2;backgroundOutline=1;isoAngle=15;gradientDirection=south;" parent="1" vertex="1">
          <mxGeometry x="373.26" y="-1141" width="32" height="20" as="geometry" />
        </mxCell>
        <mxCell id="9ZIgte_eGP6Cs3WeKvQb-21752" value="" style="triangle;whiteSpace=wrap;html=1;rotation=-90;gradientColor=default;gradientDirection=west;fillColor=default;opacity=60;" parent="1" vertex="1">
          <mxGeometry x="357.26" y="-1111" width="64" height="32" as="geometry" />
        </mxCell>
        <mxCell id="9ZIgte_eGP6Cs3WeKvQb-21759" value="" style="ellipse;shape=doubleEllipse;whiteSpace=wrap;html=1;gradientColor=#FFFFFF;gradientDirection=radial;fillColor=#000000;opacity=50;" parent="1" vertex="1">
          <mxGeometry x="587" y="-1276.38" width="32" height="32" as="geometry" />
        </mxCell>
        <mxCell id="9ZIgte_eGP6Cs3WeKvQb-21760" value="" style="html=1;whiteSpace=wrap;shape=isoCube2;backgroundOutline=1;isoAngle=15;gradientDirection=south;" parent="1" vertex="1">
          <mxGeometry x="587" y="-1338.38" width="32" height="20" as="geometry" />
        </mxCell>
        <mxCell id="9ZIgte_eGP6Cs3WeKvQb-21761" value="" style="triangle;whiteSpace=wrap;html=1;rotation=-90;gradientColor=default;gradientDirection=west;fillColor=default;opacity=60;" parent="1" vertex="1">
          <mxGeometry x="571" y="-1308.38" width="64" height="32" as="geometry" />
        </mxCell>
        <mxCell id="9ZIgte_eGP6Cs3WeKvQb-21762" value="" style="ellipse;shape=doubleEllipse;whiteSpace=wrap;html=1;gradientColor=#FFFFFF;gradientDirection=radial;fillColor=#000000;opacity=50;" parent="1" vertex="1">
          <mxGeometry x="681" y="-1390.38" width="32" height="32" as="geometry" />
        </mxCell>
        <mxCell id="9ZIgte_eGP6Cs3WeKvQb-21763" value="" style="html=1;whiteSpace=wrap;shape=isoCube2;backgroundOutline=1;isoAngle=15;gradientDirection=south;" parent="1" vertex="1">
          <mxGeometry x="681" y="-1452.38" width="32" height="20" as="geometry" />
        </mxCell>
        <mxCell id="9ZIgte_eGP6Cs3WeKvQb-21764" value="" style="triangle;whiteSpace=wrap;html=1;rotation=-90;gradientColor=default;gradientDirection=west;fillColor=default;opacity=60;" parent="1" vertex="1">
          <mxGeometry x="665" y="-1422.38" width="64" height="32" as="geometry" />
        </mxCell>
        <mxCell id="9ZIgte_eGP6Cs3WeKvQb-21765" value="" style="ellipse;shape=doubleEllipse;whiteSpace=wrap;html=1;gradientColor=#FFFFFF;gradientDirection=radial;fillColor=#000000;opacity=50;" parent="1" vertex="1">
          <mxGeometry x="486" y="-1358.38" width="32" height="32" as="geometry" />
        </mxCell>
        <mxCell id="9ZIgte_eGP6Cs3WeKvQb-21766" value="" style="html=1;whiteSpace=wrap;shape=isoCube2;backgroundOutline=1;isoAngle=15;gradientDirection=south;" parent="1" vertex="1">
          <mxGeometry x="486" y="-1420.38" width="32" height="20" as="geometry" />
        </mxCell>
        <mxCell id="9ZIgte_eGP6Cs3WeKvQb-21767" value="" style="triangle;whiteSpace=wrap;html=1;rotation=-90;gradientColor=default;gradientDirection=west;fillColor=default;opacity=60;" parent="1" vertex="1">
          <mxGeometry x="472" y="-1390.38" width="60" height="32" as="geometry" />
        </mxCell>
        <mxCell id="9ZIgte_eGP6Cs3WeKvQb-21774" value="" style="verticalAlign=top;verticalLabelPosition=bottom;labelPosition=center;align=center;html=1;outlineConnect=0;gradientDirection=north;strokeWidth=2;shape=mxgraph.networks.radio_tower;" parent="1" vertex="1">
          <mxGeometry x="357" y="-1485.38" width="32" height="48" as="geometry" />
        </mxCell>
        <mxCell id="9ZIgte_eGP6Cs3WeKvQb-21775" value="" style="verticalAlign=top;verticalLabelPosition=bottom;labelPosition=center;align=center;html=1;outlineConnect=0;gradientDirection=north;strokeWidth=2;shape=mxgraph.networks.radio_tower;" parent="1" vertex="1">
          <mxGeometry x="441.26" y="-1141" width="32" height="48" as="geometry" />
        </mxCell>
        <mxCell id="9ZIgte_eGP6Cs3WeKvQb-21777" value="" style="verticalAlign=top;verticalLabelPosition=bottom;labelPosition=center;align=center;html=1;outlineConnect=0;gradientDirection=north;strokeWidth=2;shape=mxgraph.networks.radio_tower;" parent="1" vertex="1">
          <mxGeometry x="357" y="-1276.38" width="32" height="48" as="geometry" />
        </mxCell>
        <mxCell id="9ZIgte_eGP6Cs3WeKvQb-21778" value="" style="verticalAlign=top;verticalLabelPosition=bottom;labelPosition=center;align=center;html=1;outlineConnect=0;gradientDirection=north;strokeWidth=2;shape=mxgraph.networks.radio_tower;" parent="1" vertex="1">
          <mxGeometry x="837" y="-1277.38" width="32" height="48" as="geometry" />
        </mxCell>
        <mxCell id="9ZIgte_eGP6Cs3WeKvQb-21782" value="" style="verticalAlign=top;verticalLabelPosition=bottom;labelPosition=center;align=center;html=1;outlineConnect=0;gradientDirection=north;strokeWidth=2;shape=mxgraph.networks.comm_link;fillColor=#FFCD28;strokeColor=none;gradientColor=none;rotation=80;" parent="1" vertex="1">
          <mxGeometry x="596" y="-1492.38" width="14" height="128" as="geometry" />
        </mxCell>
        <mxCell id="9ZIgte_eGP6Cs3WeKvQb-21785" value="" style="verticalAlign=top;verticalLabelPosition=bottom;labelPosition=center;align=center;html=1;outlineConnect=0;gradientDirection=north;strokeWidth=2;shape=mxgraph.networks.radio_tower;" parent="1" vertex="1">
          <mxGeometry x="837" y="-1485.38" width="32" height="48" as="geometry" />
        </mxCell>
        <mxCell id="9ZIgte_eGP6Cs3WeKvQb-21786" value="Localization" style="text;html=1;align=center;verticalAlign=middle;resizable=0;points=[];autosize=1;strokeColor=none;fillColor=none;" parent="1" vertex="1">
          <mxGeometry x="508.26" y="-1152" width="84" height="35" as="geometry" />
        </mxCell>
        <mxCell id="9ZIgte_eGP6Cs3WeKvQb-21787" value="" style="verticalAlign=top;verticalLabelPosition=bottom;labelPosition=center;align=center;html=1;outlineConnect=0;gradientDirection=north;strokeWidth=2;shape=mxgraph.networks.comm_link;fillColor=#19A3FF;strokeColor=none;" parent="1" vertex="1">
          <mxGeometry x="533.76" y="-1124" width="32" height="128" as="geometry" />
        </mxCell>
        <mxCell id="9ZIgte_eGP6Cs3WeKvQb-21788" value="Onboard&lt;br&gt;Controller" style="text;html=1;align=center;verticalAlign=middle;resizable=0;points=[];autosize=1;strokeColor=none;fillColor=none;" parent="1" vertex="1">
          <mxGeometry x="595.26" y="-1154.5" width="70" height="49" as="geometry" />
        </mxCell>
        <mxCell id="9ZIgte_eGP6Cs3WeKvQb-21791" value="" style="verticalAlign=top;verticalLabelPosition=bottom;labelPosition=center;align=center;html=1;outlineConnect=0;gradientDirection=north;strokeWidth=2;shape=mxgraph.networks.comm_link;fillColor=#FFCD28;strokeColor=none;gradientColor=none;rotation=135;" parent="1" vertex="1">
          <mxGeometry x="539" y="-1408.38" width="14" height="82" as="geometry" />
        </mxCell>
        <mxCell id="9ZIgte_eGP6Cs3WeKvQb-21793" value="" style="verticalAlign=top;verticalLabelPosition=bottom;labelPosition=center;align=center;html=1;outlineConnect=0;gradientDirection=north;strokeWidth=2;shape=mxgraph.networks.comm_link;fillColor=#FFCD28;strokeColor=none;gradientColor=none;rotation=40;" parent="1" vertex="1">
          <mxGeometry x="639.5" y="-1429.38" width="14" height="96" as="geometry" />
        </mxCell>
        <mxCell id="9ZIgte_eGP6Cs3WeKvQb-21795" value="" style="verticalAlign=top;verticalLabelPosition=bottom;labelPosition=center;align=center;html=1;outlineConnect=0;gradientDirection=north;strokeWidth=2;shape=mxgraph.networks.comm_link;fillColor=#FFCD28;strokeColor=none;gradientColor=none;rotation=0;" parent="1" vertex="1">
          <mxGeometry x="609.26" y="-1111" width="42" height="143" as="geometry" />
        </mxCell>
        <mxCell id="9ZIgte_eGP6Cs3WeKvQb-21796" value="" style="verticalAlign=top;verticalLabelPosition=bottom;labelPosition=center;align=center;html=1;outlineConnect=0;gradientDirection=north;strokeWidth=2;shape=mxgraph.networks.comm_link;fillColor=#19A3FF;strokeColor=none;rotation=90;" parent="1" vertex="1">
          <mxGeometry x="609.38" y="-1678.38" width="6" height="405" as="geometry" />
        </mxCell>
        <mxCell id="9ZIgte_eGP6Cs3WeKvQb-21797" value="" style="verticalAlign=top;verticalLabelPosition=bottom;labelPosition=center;align=center;html=1;outlineConnect=0;gradientDirection=north;strokeWidth=2;shape=mxgraph.networks.comm_link;fillColor=#19A3FF;strokeColor=none;rotation=90;" parent="1" vertex="1">
          <mxGeometry x="611.13" y="-1438.5" width="4.25" height="405" as="geometry" />
        </mxCell>
        <mxCell id="9ZIgte_eGP6Cs3WeKvQb-21798" value="" style="verticalAlign=top;verticalLabelPosition=bottom;labelPosition=center;align=center;html=1;outlineConnect=0;gradientDirection=north;strokeWidth=2;shape=mxgraph.networks.comm_link;fillColor=#19A3FF;strokeColor=none;rotation=0;" parent="1" vertex="1">
          <mxGeometry x="365.5" y="-1432.13" width="11.5" height="149.5" as="geometry" />
        </mxCell>
        <mxCell id="9ZIgte_eGP6Cs3WeKvQb-21799" value="" style="verticalAlign=top;verticalLabelPosition=bottom;labelPosition=center;align=center;html=1;outlineConnect=0;gradientDirection=north;strokeWidth=2;shape=mxgraph.networks.comm_link;fillColor=#19A3FF;strokeColor=none;rotation=0;" parent="1" vertex="1">
          <mxGeometry x="847.25" y="-1432.38" width="11.5" height="129" as="geometry" />
        </mxCell>
        <mxCell id="9ZIgte_eGP6Cs3WeKvQb-21800" value="" style="fontColor=#0066CC;verticalAlign=top;verticalLabelPosition=bottom;labelPosition=center;align=center;html=1;outlineConnect=0;fillColor=#CCCCCC;strokeColor=#6881B3;gradientColor=none;gradientDirection=north;strokeWidth=2;shape=mxgraph.networks.laptop;" parent="1" vertex="1">
          <mxGeometry x="707.26" y="-1111" width="100" height="55" as="geometry" />
        </mxCell>
      </root>
    </mxGraphModel>
  </diagram>
  <diagram id="abylQsp0k-ore7WknI2Y" name="Pipeline">
    <mxGraphModel dx="615" dy="3243" grid="1" gridSize="10" guides="1" tooltips="1" connect="1" arrows="1" fold="1" page="1" pageScale="1" pageWidth="850" pageHeight="1100" math="0" shadow="0">
      <root>
        <mxCell id="0" />
        <mxCell id="1" parent="0" />
        <mxCell id="Kj5KFgZ0lVW4899rqYF9-1" value="" style="rounded=1;whiteSpace=wrap;html=1;fillColor=#b0e3e6;strokeColor=#0e8088;" parent="1" vertex="1">
          <mxGeometry x="1946" y="-1862.12" width="431" height="562.12" as="geometry" />
        </mxCell>
        <mxCell id="Kj5KFgZ0lVW4899rqYF9-2" value="Crazyflie" style="rounded=1;whiteSpace=wrap;html=1;" parent="1" vertex="1">
          <mxGeometry x="2033.5" y="-1574.12" width="256" height="128" as="geometry" />
        </mxCell>
        <mxCell id="Kj5KFgZ0lVW4899rqYF9-3" value="STM32" style="rounded=0;whiteSpace=wrap;html=1;fillColor=#1ba1e2;fontColor=#ffffff;strokeColor=#006EAF;" parent="1" vertex="1">
          <mxGeometry x="2075.5" y="-1534.12" width="48" height="48" as="geometry" />
        </mxCell>
        <mxCell id="Kj5KFgZ0lVW4899rqYF9-4" value="NRF51" style="rounded=0;whiteSpace=wrap;html=1;fillColor=#1ba1e2;fontColor=#ffffff;strokeColor=#006EAF;" parent="1" vertex="1">
          <mxGeometry x="2215.5" y="-1534.12" width="48" height="48" as="geometry" />
        </mxCell>
        <mxCell id="Kj5KFgZ0lVW4899rqYF9-5" value="AI Deck" style="rounded=1;whiteSpace=wrap;html=1;" parent="1" vertex="1">
          <mxGeometry x="2028.5" y="-1811.12" width="266" height="171" as="geometry" />
        </mxCell>
        <mxCell id="Kj5KFgZ0lVW4899rqYF9-6" value="&lt;font style=&quot;font-size: 12px;&quot;&gt;Loco&lt;/font&gt;" style="rounded=1;whiteSpace=wrap;html=1;" parent="1" vertex="1">
          <mxGeometry x="2032" y="-1434.12" width="259" height="32.38" as="geometry" />
        </mxCell>
        <mxCell id="Kj5KFgZ0lVW4899rqYF9-7" value="GAP8" style="rounded=0;whiteSpace=wrap;html=1;fillColor=#1ba1e2;fontColor=#ffffff;strokeColor=#006EAF;" parent="1" vertex="1">
          <mxGeometry x="2075.5" y="-1743.12" width="48" height="48" as="geometry" />
        </mxCell>
        <mxCell id="Kj5KFgZ0lVW4899rqYF9-8" value="NINA" style="rounded=0;whiteSpace=wrap;html=1;fillColor=#1ba1e2;fontColor=#ffffff;strokeColor=#006EAF;" parent="1" vertex="1">
          <mxGeometry x="2215.5" y="-1744.12" width="48" height="48" as="geometry" />
        </mxCell>
        <mxCell id="Kj5KFgZ0lVW4899rqYF9-9" value="" style="rounded=1;whiteSpace=wrap;html=1;fillColor=#b0e3e6;strokeColor=#0e8088;" parent="1" vertex="1">
          <mxGeometry x="2681" y="-1380.62" width="973" height="482" as="geometry" />
        </mxCell>
        <mxCell id="Kj5KFgZ0lVW4899rqYF9-10" value="" style="fontColor=#0066CC;verticalAlign=top;verticalLabelPosition=bottom;labelPosition=center;align=center;html=1;outlineConnect=0;fillColor=#CCCCCC;strokeColor=#6881B3;gradientColor=none;gradientDirection=north;strokeWidth=2;shape=mxgraph.networks.laptop;" parent="1" vertex="1">
          <mxGeometry x="3129" y="-969.9999999999999" width="100" height="55" as="geometry" />
        </mxCell>
        <mxCell id="Kj5KFgZ0lVW4899rqYF9-11" style="edgeStyle=orthogonalEdgeStyle;rounded=0;orthogonalLoop=1;jettySize=auto;html=1;entryX=1;entryY=0.5;entryDx=0;entryDy=0;fillColor=#008a00;strokeColor=#005700;strokeWidth=4;flowAnimation=1;opacity=25;dashed=1;dashPattern=1 1;" parent="1" source="Kj5KFgZ0lVW4899rqYF9-12" target="Kj5KFgZ0lVW4899rqYF9-4" edge="1">
          <mxGeometry relative="1" as="geometry">
            <Array as="points">
              <mxPoint x="2436" y="-1155" />
              <mxPoint x="2436" y="-1510" />
            </Array>
          </mxGeometry>
        </mxCell>
        <mxCell id="Kj5KFgZ0lVW4899rqYF9-12" value="" style="html=1;strokeWidth=1;shadow=0;dashed=0;shape=mxgraph.ios7.misc.bluetooth;fillColor=#007AFF;strokeColor=none;buttonText=;strokeColor2=#222222;fontColor=#222222;fontSize=8;verticalLabelPosition=bottom;verticalAlign=top;align=center;sketch=0;" parent="1" vertex="1">
          <mxGeometry x="2709" y="-1182.62" width="56" height="56" as="geometry" />
        </mxCell>
        <mxCell id="Kj5KFgZ0lVW4899rqYF9-13" value="" style="html=1;verticalLabelPosition=bottom;align=center;labelBackgroundColor=#ffffff;verticalAlign=top;strokeWidth=2;strokeColor=#0080F0;shadow=0;dashed=0;shape=mxgraph.ios7.icons.wifi;pointerEvents=1" parent="1" vertex="1">
          <mxGeometry x="2695" y="-1393" width="49.85" height="42" as="geometry" />
        </mxCell>
        <mxCell id="Kj5KFgZ0lVW4899rqYF9-14" value="Himax&lt;br&gt;320×320" style="rounded=0;whiteSpace=wrap;html=1;fillColor=#1ba1e2;fontColor=#ffffff;strokeColor=#006EAF;" parent="1" vertex="1">
          <mxGeometry x="2145.5" y="-1841.12" width="48" height="48" as="geometry" />
        </mxCell>
        <mxCell id="Kj5KFgZ0lVW4899rqYF9-17" value="Intrepid&lt;br&gt;Bundle" style="text;html=1;align=center;verticalAlign=middle;resizable=0;points=[];autosize=1;strokeColor=none;fillColor=none;" parent="1" vertex="1">
          <mxGeometry x="3451" y="-1333" width="56" height="49" as="geometry" />
        </mxCell>
        <mxCell id="Kj5KFgZ0lVW4899rqYF9-18" value="" style="rounded=0;whiteSpace=wrap;html=1;" parent="1" vertex="1">
          <mxGeometry x="2898" y="-1307" width="210" height="128.62" as="geometry" />
        </mxCell>
        <mxCell id="Kj5KFgZ0lVW4899rqYF9-19" value="&lt;div&gt;gap8.bin&lt;/div&gt;" style="ellipse;whiteSpace=wrap;html=1;" parent="1" vertex="1">
          <mxGeometry x="2800" y="-1258.19" width="63" height="31" as="geometry" />
        </mxCell>
        <mxCell id="Kj5KFgZ0lVW4899rqYF9-20" value="&lt;div&gt;stm32.bin&lt;/div&gt;" style="ellipse;whiteSpace=wrap;html=1;" parent="1" vertex="1">
          <mxGeometry x="2800" y="-1096" width="63" height="31" as="geometry" />
        </mxCell>
        <mxCell id="Kj5KFgZ0lVW4899rqYF9-21" value="" style="rounded=0;whiteSpace=wrap;html=1;" parent="1" vertex="1">
          <mxGeometry x="2905" y="-1117" width="210" height="128.62" as="geometry" />
        </mxCell>
        <mxCell id="Kj5KFgZ0lVW4899rqYF9-22" value="" style="rounded=0;whiteSpace=wrap;html=1;" parent="1" vertex="1">
          <mxGeometry x="3304" y="-1279" width="329" height="264" as="geometry" />
        </mxCell>
        <mxCell id="Kj5KFgZ0lVW4899rqYF9-23" value="main.c" style="ellipse;whiteSpace=wrap;html=1;" parent="1" vertex="1">
          <mxGeometry x="3024" y="-1235.0000000000005" width="63" height="31" as="geometry" />
        </mxCell>
        <mxCell id="Kj5KFgZ0lVW4899rqYF9-24" style="edgeStyle=orthogonalEdgeStyle;rounded=0;orthogonalLoop=1;jettySize=auto;html=1;entryX=0.5;entryY=1;entryDx=0;entryDy=0;" parent="1" source="Kj5KFgZ0lVW4899rqYF9-25" target="Kj5KFgZ0lVW4899rqYF9-26" edge="1">
          <mxGeometry relative="1" as="geometry" />
        </mxCell>
        <mxCell id="Kj5KFgZ0lVW4899rqYF9-25" value="&lt;div&gt;stm32_lib.c&lt;/div&gt;" style="ellipse;whiteSpace=wrap;html=1;" parent="1" vertex="1">
          <mxGeometry x="3031" y="-1039.19" width="63" height="31" as="geometry" />
        </mxCell>
        <mxCell id="Kj5KFgZ0lVW4899rqYF9-26" value="main.c" style="ellipse;whiteSpace=wrap;html=1;" parent="1" vertex="1">
          <mxGeometry x="3031" y="-1099.19" width="63" height="31" as="geometry" />
        </mxCell>
        <mxCell id="Kj5KFgZ0lVW4899rqYF9-27" style="edgeStyle=orthogonalEdgeStyle;rounded=0;orthogonalLoop=1;jettySize=auto;html=1;exitX=0.5;exitY=1;exitDx=0;exitDy=0;entryX=0.5;entryY=0;entryDx=0;entryDy=0;" parent="1" source="Kj5KFgZ0lVW4899rqYF9-28" target="Kj5KFgZ0lVW4899rqYF9-23" edge="1">
          <mxGeometry relative="1" as="geometry" />
        </mxCell>
        <mxCell id="Kj5KFgZ0lVW4899rqYF9-28" value="&lt;div&gt;gap8_lib.c&lt;/div&gt;" style="ellipse;whiteSpace=wrap;html=1;" parent="1" vertex="1">
          <mxGeometry x="3024" y="-1295" width="63" height="31" as="geometry" />
        </mxCell>
        <mxCell id="Kj5KFgZ0lVW4899rqYF9-29" style="edgeStyle=orthogonalEdgeStyle;rounded=0;orthogonalLoop=1;jettySize=auto;html=1;exitX=0.5;exitY=1;exitDx=0;exitDy=0;exitPerimeter=0;entryX=0.5;entryY=1;entryDx=0;entryDy=0;flowAnimation=1;" parent="1" source="Kj5KFgZ0lVW4899rqYF9-30" target="Kj5KFgZ0lVW4899rqYF9-20" edge="1">
          <mxGeometry relative="1" as="geometry">
            <Array as="points">
              <mxPoint x="2951" y="-1004.9999999999999" />
              <mxPoint x="2951" y="-969.9999999999999" />
              <mxPoint x="2832" y="-969.9999999999999" />
            </Array>
          </mxGeometry>
        </mxCell>
        <mxCell id="Kj5KFgZ0lVW4899rqYF9-30" value="BUILD&lt;br&gt;stm32" style="shape=cylinder3;whiteSpace=wrap;html=1;boundedLbl=1;backgroundOutline=1;size=15;" parent="1" vertex="1">
          <mxGeometry x="2929" y="-1080.5" width="57" height="75.31" as="geometry" />
        </mxCell>
        <mxCell id="Kj5KFgZ0lVW4899rqYF9-31" style="edgeStyle=orthogonalEdgeStyle;rounded=0;orthogonalLoop=1;jettySize=auto;html=1;exitX=0.5;exitY=1;exitDx=0;exitDy=0;exitPerimeter=0;entryX=0.5;entryY=1;entryDx=0;entryDy=0;flowAnimation=1;" parent="1" source="Kj5KFgZ0lVW4899rqYF9-32" target="Kj5KFgZ0lVW4899rqYF9-19" edge="1">
          <mxGeometry relative="1" as="geometry">
            <Array as="points">
              <mxPoint x="2951" y="-1159" />
              <mxPoint x="2832" y="-1159" />
            </Array>
          </mxGeometry>
        </mxCell>
        <mxCell id="Kj5KFgZ0lVW4899rqYF9-32" value="BUILD&lt;br&gt;gap8" style="shape=cylinder3;whiteSpace=wrap;html=1;boundedLbl=1;backgroundOutline=1;size=15;" parent="1" vertex="1">
          <mxGeometry x="2922" y="-1278" width="57" height="84" as="geometry" />
        </mxCell>
        <mxCell id="Kj5KFgZ0lVW4899rqYF9-33" style="edgeStyle=orthogonalEdgeStyle;rounded=0;orthogonalLoop=1;jettySize=auto;html=1;exitX=0;exitY=0.5;exitDx=0;exitDy=0;entryX=1;entryY=0;entryDx=0;entryDy=0;" parent="1" source="Kj5KFgZ0lVW4899rqYF9-34" target="Kj5KFgZ0lVW4899rqYF9-23" edge="1">
          <mxGeometry relative="1" as="geometry">
            <Array as="points">
              <mxPoint x="3078" y="-1250" />
            </Array>
          </mxGeometry>
        </mxCell>
        <mxCell id="Kj5KFgZ0lVW4899rqYF9-34" value="gap8_intrepid.h" style="ellipse;whiteSpace=wrap;html=1;" parent="1" vertex="1">
          <mxGeometry x="3335.5" y="-1253" width="112" height="31" as="geometry" />
        </mxCell>
        <mxCell id="Kj5KFgZ0lVW4899rqYF9-35" style="edgeStyle=orthogonalEdgeStyle;rounded=0;orthogonalLoop=1;jettySize=auto;html=1;entryX=1;entryY=0.5;entryDx=0;entryDy=0;" parent="1" source="Kj5KFgZ0lVW4899rqYF9-36" target="Kj5KFgZ0lVW4899rqYF9-34" edge="1">
          <mxGeometry relative="1" as="geometry" />
        </mxCell>
        <mxCell id="Kj5KFgZ0lVW4899rqYF9-36" value="gap8_intrepid.o" style="ellipse;whiteSpace=wrap;html=1;" parent="1" vertex="1">
          <mxGeometry x="3493" y="-1253" width="112" height="31" as="geometry" />
        </mxCell>
        <mxCell id="Kj5KFgZ0lVW4899rqYF9-37" style="edgeStyle=orthogonalEdgeStyle;rounded=0;orthogonalLoop=1;jettySize=auto;html=1;exitX=0;exitY=1;exitDx=0;exitDy=0;entryX=1;entryY=0;entryDx=0;entryDy=0;" parent="1" source="Kj5KFgZ0lVW4899rqYF9-39" target="Kj5KFgZ0lVW4899rqYF9-26" edge="1">
          <mxGeometry relative="1" as="geometry">
            <Array as="points">
              <mxPoint x="3176" y="-1095" />
            </Array>
          </mxGeometry>
        </mxCell>
        <mxCell id="Kj5KFgZ0lVW4899rqYF9-38" style="edgeStyle=orthogonalEdgeStyle;rounded=0;orthogonalLoop=1;jettySize=auto;html=1;exitX=0;exitY=0;exitDx=0;exitDy=0;entryX=1;entryY=1;entryDx=0;entryDy=0;" parent="1" source="Kj5KFgZ0lVW4899rqYF9-39" target="Kj5KFgZ0lVW4899rqYF9-23" edge="1">
          <mxGeometry relative="1" as="geometry">
            <Array as="points">
              <mxPoint x="3177" y="-1208" />
            </Array>
          </mxGeometry>
        </mxCell>
        <mxCell id="Kj5KFgZ0lVW4899rqYF9-39" value="cpx_comm.h" style="ellipse;whiteSpace=wrap;html=1;" parent="1" vertex="1">
          <mxGeometry x="3335.5" y="-1169.62" width="112" height="31" as="geometry" />
        </mxCell>
        <mxCell id="Kj5KFgZ0lVW4899rqYF9-40" style="edgeStyle=orthogonalEdgeStyle;rounded=0;orthogonalLoop=1;jettySize=auto;html=1;entryX=1;entryY=0.5;entryDx=0;entryDy=0;" parent="1" source="Kj5KFgZ0lVW4899rqYF9-41" target="Kj5KFgZ0lVW4899rqYF9-39" edge="1">
          <mxGeometry relative="1" as="geometry" />
        </mxCell>
        <mxCell id="Kj5KFgZ0lVW4899rqYF9-41" value="cpx_comm.o" style="ellipse;whiteSpace=wrap;html=1;" parent="1" vertex="1">
          <mxGeometry x="3493" y="-1169.62" width="112" height="31" as="geometry" />
        </mxCell>
        <mxCell id="Kj5KFgZ0lVW4899rqYF9-42" value="stm32.h" style="ellipse;whiteSpace=wrap;html=1;" parent="1" vertex="1">
          <mxGeometry x="3353" y="-1073.15" width="112" height="31" as="geometry" />
        </mxCell>
        <mxCell id="Kj5KFgZ0lVW4899rqYF9-43" style="edgeStyle=orthogonalEdgeStyle;rounded=0;orthogonalLoop=1;jettySize=auto;html=1;entryX=1;entryY=0.5;entryDx=0;entryDy=0;" parent="1" source="Kj5KFgZ0lVW4899rqYF9-44" target="Kj5KFgZ0lVW4899rqYF9-42" edge="1">
          <mxGeometry relative="1" as="geometry" />
        </mxCell>
        <mxCell id="Kj5KFgZ0lVW4899rqYF9-44" value="stm32.o" style="ellipse;whiteSpace=wrap;html=1;" parent="1" vertex="1">
          <mxGeometry x="3493" y="-1073.15" width="112" height="31" as="geometry" />
        </mxCell>
        <mxCell id="Kj5KFgZ0lVW4899rqYF9-45" style="edgeStyle=orthogonalEdgeStyle;rounded=0;orthogonalLoop=1;jettySize=auto;html=1;exitX=0;exitY=0.5;exitDx=0;exitDy=0;entryX=0.5;entryY=0;entryDx=0;entryDy=0;entryPerimeter=0;" parent="1" source="Kj5KFgZ0lVW4899rqYF9-26" target="Kj5KFgZ0lVW4899rqYF9-30" edge="1">
          <mxGeometry relative="1" as="geometry" />
        </mxCell>
        <mxCell id="Kj5KFgZ0lVW4899rqYF9-46" style="edgeStyle=orthogonalEdgeStyle;rounded=0;orthogonalLoop=1;jettySize=auto;html=1;exitX=0;exitY=0.5;exitDx=0;exitDy=0;entryX=0.5;entryY=0;entryDx=0;entryDy=0;entryPerimeter=0;" parent="1" source="Kj5KFgZ0lVW4899rqYF9-23" target="Kj5KFgZ0lVW4899rqYF9-32" edge="1">
          <mxGeometry relative="1" as="geometry" />
        </mxCell>
        <mxCell id="Kj5KFgZ0lVW4899rqYF9-47" style="edgeStyle=orthogonalEdgeStyle;rounded=0;orthogonalLoop=1;jettySize=auto;html=1;exitX=0;exitY=0.5;exitDx=0;exitDy=0;entryX=0.494;entryY=0.125;entryDx=0;entryDy=0;entryPerimeter=0;flowAnimation=1;" parent="1" source="Kj5KFgZ0lVW4899rqYF9-19" target="Kj5KFgZ0lVW4899rqYF9-12" edge="1">
          <mxGeometry relative="1" as="geometry" />
        </mxCell>
        <mxCell id="Kj5KFgZ0lVW4899rqYF9-48" style="edgeStyle=orthogonalEdgeStyle;rounded=0;orthogonalLoop=1;jettySize=auto;html=1;exitX=0;exitY=0.5;exitDx=0;exitDy=0;entryX=0.435;entryY=0.988;entryDx=0;entryDy=0;entryPerimeter=0;flowAnimation=1;" parent="1" source="Kj5KFgZ0lVW4899rqYF9-20" target="Kj5KFgZ0lVW4899rqYF9-12" edge="1">
          <mxGeometry relative="1" as="geometry">
            <Array as="points">
              <mxPoint x="2780" y="-1081" />
              <mxPoint x="2733" y="-1081" />
            </Array>
          </mxGeometry>
        </mxCell>
        <mxCell id="Kj5KFgZ0lVW4899rqYF9-49" value="GAP8" style="text;html=1;align=center;verticalAlign=middle;resizable=0;points=[];autosize=1;strokeColor=none;fillColor=none;" parent="1" vertex="1">
          <mxGeometry x="2979" y="-1349" width="49" height="35" as="geometry" />
        </mxCell>
        <mxCell id="Kj5KFgZ0lVW4899rqYF9-50" value="STM32" style="text;html=1;align=center;verticalAlign=middle;resizable=0;points=[];autosize=1;strokeColor=none;fillColor=none;" parent="1" vertex="1">
          <mxGeometry x="2979" y="-1152" width="56" height="35" as="geometry" />
        </mxCell>
        <mxCell id="Kj5KFgZ0lVW4899rqYF9-51" style="edgeStyle=orthogonalEdgeStyle;rounded=0;orthogonalLoop=1;jettySize=auto;html=1;exitX=0;exitY=0.5;exitDx=0;exitDy=0;entryX=0.683;entryY=0.909;entryDx=0;entryDy=0;entryPerimeter=0;" parent="1" source="Kj5KFgZ0lVW4899rqYF9-42" target="Kj5KFgZ0lVW4899rqYF9-26" edge="1">
          <mxGeometry relative="1" as="geometry">
            <Array as="points">
              <mxPoint x="3311" y="-1071" />
            </Array>
          </mxGeometry>
        </mxCell>
        <mxCell id="Kj5KFgZ0lVW4899rqYF9-53" value="Patch firmware" style="text;html=1;align=center;verticalAlign=middle;resizable=0;points=[];autosize=1;strokeColor=none;fillColor=none;" parent="1" vertex="1">
          <mxGeometry x="2430" y="-1187" width="98" height="35" as="geometry" />
        </mxCell>
        <mxCell id="Kj5KFgZ0lVW4899rqYF9-54" value="Flow V2" style="rounded=1;whiteSpace=wrap;html=1;" parent="1" vertex="1">
          <mxGeometry x="2032" y="-1390.5" width="259" height="32.38" as="geometry" />
        </mxCell>
        <mxCell id="Kj5KFgZ0lVW4899rqYF9-55" value="" style="ellipse;shape=cloud;whiteSpace=wrap;html=1;opacity=35;shadow=1;textShadow=1;fillColor=#008a00;fontColor=#ffffff;strokeColor=#005700;" parent="1" vertex="1">
          <mxGeometry x="3122" y="-1323.5" width="161" height="325.5" as="geometry" />
        </mxCell>
        <mxCell id="Kj5KFgZ0lVW4899rqYF9-57" value="" style="rounded=1;whiteSpace=wrap;html=1;fillColor=#b0e3e6;strokeColor=#0e8088;" parent="1" vertex="1">
          <mxGeometry x="1946" y="-1246" width="431" height="562.12" as="geometry" />
        </mxCell>
        <mxCell id="Kj5KFgZ0lVW4899rqYF9-58" value="Crazyflie" style="rounded=1;whiteSpace=wrap;html=1;" parent="1" vertex="1">
          <mxGeometry x="2033.5" y="-957.9999999999999" width="256" height="128" as="geometry" />
        </mxCell>
        <mxCell id="Kj5KFgZ0lVW4899rqYF9-59" value="STM32" style="rounded=0;whiteSpace=wrap;html=1;fillColor=#1ba1e2;fontColor=#ffffff;strokeColor=#006EAF;" parent="1" vertex="1">
          <mxGeometry x="2075.5" y="-917.9999999999999" width="48" height="48" as="geometry" />
        </mxCell>
        <mxCell id="Kj5KFgZ0lVW4899rqYF9-60" value="NRF51" style="rounded=0;whiteSpace=wrap;html=1;fillColor=#1ba1e2;fontColor=#ffffff;strokeColor=#006EAF;" parent="1" vertex="1">
          <mxGeometry x="2215.5" y="-917.9999999999999" width="48" height="48" as="geometry" />
        </mxCell>
        <mxCell id="Kj5KFgZ0lVW4899rqYF9-61" value="AI Deck" style="rounded=1;whiteSpace=wrap;html=1;" parent="1" vertex="1">
          <mxGeometry x="2028.5" y="-1195" width="266" height="171" as="geometry" />
        </mxCell>
        <mxCell id="Kj5KFgZ0lVW4899rqYF9-62" value="&lt;font style=&quot;font-size: 12px;&quot;&gt;Loco&lt;/font&gt;" style="rounded=1;whiteSpace=wrap;html=1;" parent="1" vertex="1">
          <mxGeometry x="2032" y="-817.9999999999999" width="259" height="32.38" as="geometry" />
        </mxCell>
        <mxCell id="Kj5KFgZ0lVW4899rqYF9-75" style="edgeStyle=orthogonalEdgeStyle;rounded=0;orthogonalLoop=1;jettySize=auto;html=1;exitX=0.75;exitY=1;exitDx=0;exitDy=0;entryX=0.75;entryY=0;entryDx=0;entryDy=0;strokeWidth=3;dashed=1;dashPattern=1 1;fillColor=#fa6800;strokeColor=#C73500;opacity=50;flowAnimation=1;" parent="1" source="Kj5KFgZ0lVW4899rqYF9-63" target="Kj5KFgZ0lVW4899rqYF9-59" edge="1">
          <mxGeometry relative="1" as="geometry" />
        </mxCell>
        <mxCell id="Kj5KFgZ0lVW4899rqYF9-63" value="GAP8" style="rounded=0;whiteSpace=wrap;html=1;fillColor=#1ba1e2;fontColor=#ffffff;strokeColor=#006EAF;" parent="1" vertex="1">
          <mxGeometry x="2075.5" y="-1127" width="48" height="48" as="geometry" />
        </mxCell>
        <mxCell id="Kj5KFgZ0lVW4899rqYF9-64" value="NINA" style="rounded=0;whiteSpace=wrap;html=1;fillColor=#1ba1e2;fontColor=#ffffff;strokeColor=#006EAF;" parent="1" vertex="1">
          <mxGeometry x="2215.5" y="-1128" width="48" height="48" as="geometry" />
        </mxCell>
        <mxCell id="Kj5KFgZ0lVW4899rqYF9-65" value="Himax&lt;br&gt;320×320" style="rounded=0;whiteSpace=wrap;html=1;fillColor=#1ba1e2;fontColor=#ffffff;strokeColor=#006EAF;" parent="1" vertex="1">
          <mxGeometry x="2145.5" y="-1225" width="48" height="48" as="geometry" />
        </mxCell>
        <mxCell id="Kj5KFgZ0lVW4899rqYF9-68" value="Flow V2" style="rounded=1;whiteSpace=wrap;html=1;" parent="1" vertex="1">
          <mxGeometry x="2032" y="-774.38" width="259" height="32.38" as="geometry" />
        </mxCell>
        <mxCell id="Kj5KFgZ0lVW4899rqYF9-69" style="edgeStyle=orthogonalEdgeStyle;rounded=0;orthogonalLoop=1;jettySize=auto;html=1;entryX=1;entryY=0.5;entryDx=0;entryDy=0;fillColor=#008a00;strokeColor=#005700;arcSize=37;strokeWidth=4;flowAnimation=1;dashed=1;dashPattern=1 1;opacity=25;" parent="1" source="Kj5KFgZ0lVW4899rqYF9-12" target="Kj5KFgZ0lVW4899rqYF9-60" edge="1">
          <mxGeometry relative="1" as="geometry">
            <Array as="points">
              <mxPoint x="2436" y="-1155" />
              <mxPoint x="2436" y="-894" />
            </Array>
          </mxGeometry>
        </mxCell>
        <mxCell id="Kj5KFgZ0lVW4899rqYF9-70" style="edgeStyle=orthogonalEdgeStyle;rounded=0;orthogonalLoop=1;jettySize=auto;html=1;exitX=0.5;exitY=0;exitDx=0;exitDy=0;entryX=0.5;entryY=1;entryDx=0;entryDy=0;strokeWidth=4;fillColor=#d80073;strokeColor=#A50040;dashed=1;dashPattern=1 1;flowAnimation=1;opacity=25;" parent="1" edge="1">
          <mxGeometry relative="1" as="geometry">
            <mxPoint x="2226" y="-916.88" as="sourcePoint" />
            <mxPoint x="2226" y="-1485" as="targetPoint" />
          </mxGeometry>
        </mxCell>
        <mxCell id="Kj5KFgZ0lVW4899rqYF9-71" style="edgeStyle=orthogonalEdgeStyle;rounded=0;orthogonalLoop=1;jettySize=auto;html=1;exitX=0.75;exitY=1;exitDx=0;exitDy=0;entryX=0.75;entryY=0;entryDx=0;entryDy=0;strokeWidth=4;fillColor=#d80073;strokeColor=#A50040;dashed=1;dashPattern=1 1;shadow=0;textShadow=0;opacity=25;flowAnimation=1;" parent="1" source="Kj5KFgZ0lVW4899rqYF9-4" target="Kj5KFgZ0lVW4899rqYF9-60" edge="1">
          <mxGeometry relative="1" as="geometry" />
        </mxCell>
        <mxCell id="Kj5KFgZ0lVW4899rqYF9-72" value="CFTP" style="edgeLabel;html=1;align=center;verticalAlign=middle;resizable=0;points=[];" parent="Kj5KFgZ0lVW4899rqYF9-71" vertex="1" connectable="0">
          <mxGeometry x="-0.2603" y="3" relative="1" as="geometry">
            <mxPoint x="-15" y="2" as="offset" />
          </mxGeometry>
        </mxCell>
        <mxCell id="Kj5KFgZ0lVW4899rqYF9-74" style="edgeStyle=orthogonalEdgeStyle;rounded=0;orthogonalLoop=1;jettySize=auto;html=1;exitX=0.25;exitY=0;exitDx=0;exitDy=0;entryX=0.25;entryY=1;entryDx=0;entryDy=0;strokeWidth=3;dashed=1;dashPattern=1 1;fillColor=#fa6800;strokeColor=#C73500;opacity=50;flowAnimation=1;" parent="1" source="Kj5KFgZ0lVW4899rqYF9-78" target="Kj5KFgZ0lVW4899rqYF9-63" edge="1">
          <mxGeometry relative="1" as="geometry">
            <Array as="points">
              <mxPoint x="2088" y="-970" />
              <mxPoint x="2088" y="-970" />
            </Array>
          </mxGeometry>
        </mxCell>
        <mxCell id="Kj5KFgZ0lVW4899rqYF9-80" style="edgeStyle=orthogonalEdgeStyle;rounded=0;orthogonalLoop=1;jettySize=auto;html=1;exitX=0.75;exitY=1;exitDx=0;exitDy=0;entryX=0.75;entryY=0;entryDx=0;entryDy=0;strokeWidth=3;dashed=1;dashPattern=1 1;fillColor=#fa6800;strokeColor=#C73500;opacity=50;flowAnimation=1;" parent="1" edge="1">
          <mxGeometry relative="1" as="geometry">
            <mxPoint x="2112" y="-1695.12" as="sourcePoint" />
            <mxPoint x="2112" y="-1534.12" as="targetPoint" />
          </mxGeometry>
        </mxCell>
        <mxCell id="Kj5KFgZ0lVW4899rqYF9-81" style="edgeStyle=orthogonalEdgeStyle;rounded=0;orthogonalLoop=1;jettySize=auto;html=1;exitX=0.25;exitY=0;exitDx=0;exitDy=0;entryX=0.25;entryY=1;entryDx=0;entryDy=0;strokeWidth=3;dashed=1;dashPattern=1 1;fillColor=#fa6800;strokeColor=#C73500;opacity=50;flowAnimation=1;" parent="1" edge="1">
          <mxGeometry relative="1" as="geometry">
            <mxPoint x="2088" y="-1534.12" as="sourcePoint" />
            <mxPoint x="2088" y="-1695.12" as="targetPoint" />
            <Array as="points">
              <mxPoint x="2088" y="-1586.12" />
              <mxPoint x="2088" y="-1586.12" />
            </Array>
          </mxGeometry>
        </mxCell>
        <mxCell id="Kj5KFgZ0lVW4899rqYF9-82" value="&lt;div&gt;CPX&lt;/div&gt;" style="text;html=1;align=center;verticalAlign=middle;resizable=0;points=[];autosize=1;strokeColor=none;fillColor=none;" parent="1" vertex="1">
          <mxGeometry x="2073.5" y="-1621.31" width="50" height="30" as="geometry" />
        </mxCell>
        <mxCell id="Kj5KFgZ0lVW4899rqYF9-83" value="" style="edgeStyle=orthogonalEdgeStyle;rounded=0;orthogonalLoop=1;jettySize=auto;html=1;exitX=0.25;exitY=0;exitDx=0;exitDy=0;entryX=0.25;entryY=1;entryDx=0;entryDy=0;strokeWidth=3;dashed=1;dashPattern=1 1;fillColor=#fa6800;strokeColor=#C73500;opacity=50;flowAnimation=1;" parent="1" source="Kj5KFgZ0lVW4899rqYF9-59" target="Kj5KFgZ0lVW4899rqYF9-78" edge="1">
          <mxGeometry relative="1" as="geometry">
            <mxPoint x="2088" y="-918" as="sourcePoint" />
            <mxPoint x="2088" y="-1079" as="targetPoint" />
            <Array as="points" />
          </mxGeometry>
        </mxCell>
        <mxCell id="Kj5KFgZ0lVW4899rqYF9-78" value="&lt;div&gt;CPX&lt;/div&gt;" style="text;html=1;align=center;verticalAlign=middle;resizable=0;points=[];autosize=1;strokeColor=none;fillColor=none;" parent="1" vertex="1">
          <mxGeometry x="2073.5" y="-1008.19" width="50" height="30" as="geometry" />
        </mxCell>
        <mxCell id="Kj5KFgZ0lVW4899rqYF9-85" style="edgeStyle=orthogonalEdgeStyle;rounded=0;orthogonalLoop=1;jettySize=auto;html=1;exitX=1;exitY=0.25;exitDx=0;exitDy=0;strokeWidth=3;dashed=1;dashPattern=1 1;fillColor=#b0e3e6;strokeColor=#0e8088;flowAnimation=1;" parent="1" source="Kj5KFgZ0lVW4899rqYF9-64" edge="1">
          <mxGeometry relative="1" as="geometry">
            <Array as="points">
              <mxPoint x="2264" y="-1100" />
              <mxPoint x="2600" y="-1100" />
              <mxPoint x="2600" y="-1370" />
              <mxPoint x="2700" y="-1370" />
            </Array>
            <mxPoint x="2406.5" y="-1116.9899999999998" as="sourcePoint" />
            <mxPoint x="2700" y="-1380" as="targetPoint" />
          </mxGeometry>
        </mxCell>
        <mxCell id="p1YwJiHcvKK23QlAhqyA-8" value="\" style="edgeStyle=orthogonalEdgeStyle;rounded=0;orthogonalLoop=1;jettySize=auto;html=1;exitX=0.5;exitY=1;exitDx=0;exitDy=0;entryX=-0.018;entryY=0.85;entryDx=0;entryDy=0;entryPerimeter=0;strokeColor=#FF0000;strokeWidth=3;dashed=1;dashPattern=1 1;opacity=50;fillColor=#1ba1e2;flowAnimation=1;" parent="1" source="Kj5KFgZ0lVW4899rqYF9-60" target="Kj5KFgZ0lVW4899rqYF9-12" edge="1">
          <mxGeometry x="0.022" y="-12" relative="1" as="geometry">
            <Array as="points">
              <mxPoint x="2240" y="-850" />
              <mxPoint x="2708" y="-850" />
            </Array>
            <mxPoint x="1" as="offset" />
          </mxGeometry>
        </mxCell>
        <mxCell id="p1YwJiHcvKK23QlAhqyA-9" value="\" style="edgeStyle=orthogonalEdgeStyle;rounded=0;orthogonalLoop=1;jettySize=auto;html=1;strokeColor=#FF0000;strokeWidth=3;dashed=1;dashPattern=1 1;opacity=50;fillColor=#1ba1e2;exitX=1;exitY=0.75;exitDx=0;exitDy=0;entryX=0.031;entryY=0.864;entryDx=0;entryDy=0;entryPerimeter=0;flowAnimation=1;" parent="1" source="Kj5KFgZ0lVW4899rqYF9-4" target="Kj5KFgZ0lVW4899rqYF9-12" edge="1">
          <mxGeometry relative="1" as="geometry">
            <mxPoint x="2410" y="-1498" as="sourcePoint" />
            <mxPoint x="2670" y="-1099" as="targetPoint" />
            <Array as="points">
              <mxPoint x="2410" y="-1498" />
              <mxPoint x="2410" y="-850" />
              <mxPoint x="2711" y="-850" />
            </Array>
          </mxGeometry>
        </mxCell>
        <mxCell id="p1YwJiHcvKK23QlAhqyA-10" value="Logs" style="text;html=1;align=center;verticalAlign=middle;resizable=0;points=[];autosize=1;strokeColor=none;fillColor=none;" parent="1" vertex="1">
          <mxGeometry x="2631" y="-880" width="50" height="30" as="geometry" />
        </mxCell>
        <mxCell id="p1YwJiHcvKK23QlAhqyA-11" value="" style="edgeStyle=orthogonalEdgeStyle;rounded=0;orthogonalLoop=1;jettySize=auto;html=1;exitX=1;exitY=0.5;exitDx=0;exitDy=0;strokeWidth=3;dashed=1;dashPattern=1 1;fillColor=#b0e3e6;strokeColor=#0e8088;flowAnimation=1;entryX=0.1;entryY=0.452;entryDx=0;entryDy=0;entryPerimeter=0;" parent="1" target="Kj5KFgZ0lVW4899rqYF9-13" edge="1">
          <mxGeometry relative="1" as="geometry">
            <Array as="points">
              <mxPoint x="2600" y="-1744" />
              <mxPoint x="2600" y="-1374" />
            </Array>
            <mxPoint x="2264.5" y="-1744.12" as="sourcePoint" />
            <mxPoint x="2681" y="-1374" as="targetPoint" />
          </mxGeometry>
        </mxCell>
        <mxCell id="p1YwJiHcvKK23QlAhqyA-12" value="Stream Camera" style="text;html=1;align=center;verticalAlign=middle;resizable=0;points=[];autosize=1;strokeColor=none;fillColor=none;" parent="1" vertex="1">
          <mxGeometry x="2601" y="-1422.9999999999998" width="110" height="30" as="geometry" />
        </mxCell>
      </root>
    </mxGraphModel>
  </diagram>
  <diagram id="IClPwDsbdd2oTUolAAq5" name="AI">
    <mxGraphModel dx="1980" dy="1433" grid="1" gridSize="10" guides="1" tooltips="1" connect="1" arrows="1" fold="1" page="0" pageScale="1" pageWidth="850" pageHeight="1100" math="0" shadow="0">
      <root>
        <mxCell id="0" />
        <mxCell id="1" parent="0" />
        <mxCell id="_hx6_GJGES43o-Bzlk7O-4" value="" style="rounded=1;whiteSpace=wrap;html=1;fillColor=#1ba1e2;fontColor=#ffffff;strokeColor=#006EAF;" vertex="1" parent="1">
          <mxGeometry x="-280" y="-27" width="239" height="244" as="geometry" />
        </mxCell>
        <mxCell id="RyXJAOycTilbPtWUm33V-22" style="edgeStyle=orthogonalEdgeStyle;rounded=0;orthogonalLoop=1;jettySize=auto;html=1;exitX=1;exitY=0.5;exitDx=0;exitDy=0;entryX=0;entryY=0.5;entryDx=0;entryDy=0;fillColor=#1ba1e2;strokeColor=#006EAF;strokeWidth=3;flowAnimation=1;" edge="1" parent="1" source="RyXJAOycTilbPtWUm33V-1" target="RyXJAOycTilbPtWUm33V-21">
          <mxGeometry relative="1" as="geometry" />
        </mxCell>
        <mxCell id="RyXJAOycTilbPtWUm33V-1" value="Neural Network" style="rounded=0;whiteSpace=wrap;html=1;" vertex="1" parent="1">
          <mxGeometry x="360" y="65" width="120" height="60" as="geometry" />
        </mxCell>
        <mxCell id="RyXJAOycTilbPtWUm33V-19" style="edgeStyle=orthogonalEdgeStyle;rounded=0;orthogonalLoop=1;jettySize=auto;html=1;exitX=1;exitY=0.5;exitDx=0;exitDy=0;entryX=0;entryY=0.5;entryDx=0;entryDy=0;fillColor=#1ba1e2;strokeColor=#006EAF;strokeWidth=3;flowAnimation=1;" edge="1" parent="1" source="RyXJAOycTilbPtWUm33V-3" target="RyXJAOycTilbPtWUm33V-1">
          <mxGeometry relative="1" as="geometry" />
        </mxCell>
        <mxCell id="RyXJAOycTilbPtWUm33V-39" style="edgeStyle=orthogonalEdgeStyle;rounded=0;orthogonalLoop=1;jettySize=auto;html=1;exitX=1;exitY=1;exitDx=0;exitDy=0;entryX=0;entryY=0.5;entryDx=0;entryDy=0;fillColor=#ffcd28;gradientColor=#ffa500;strokeColor=#d79b00;strokeWidth=3;flowAnimation=1;" edge="1" parent="1" source="RyXJAOycTilbPtWUm33V-3" target="RyXJAOycTilbPtWUm33V-30">
          <mxGeometry relative="1" as="geometry" />
        </mxCell>
        <mxCell id="RyXJAOycTilbPtWUm33V-3" value="&lt;div&gt;State&lt;/div&gt;" style="ellipse;whiteSpace=wrap;html=1;" vertex="1" parent="1">
          <mxGeometry x="100" y="50" width="110" height="90" as="geometry" />
        </mxCell>
        <mxCell id="RyXJAOycTilbPtWUm33V-14" style="edgeStyle=orthogonalEdgeStyle;rounded=0;orthogonalLoop=1;jettySize=auto;html=1;entryX=0.5;entryY=0;entryDx=0;entryDy=0;fillColor=#dae8fc;gradientColor=#7ea6e0;strokeColor=#6c8ebf;strokeWidth=3;flowAnimation=1;exitX=0.5;exitY=0;exitDx=0;exitDy=0;" edge="1" parent="1" source="_hx6_GJGES43o-Bzlk7O-4" target="RyXJAOycTilbPtWUm33V-3">
          <mxGeometry relative="1" as="geometry">
            <mxPoint x="-270" y="-60" as="sourcePoint" />
            <Array as="points">
              <mxPoint x="-160" y="-80" />
              <mxPoint x="155" y="-80" />
            </Array>
          </mxGeometry>
        </mxCell>
        <mxCell id="RyXJAOycTilbPtWUm33V-12" value="" style="shape=image;html=1;verticalAlign=top;verticalLabelPosition=bottom;labelBackgroundColor=#ffffff;imageAspect=0;aspect=fixed;image=https://cdn1.iconfinder.com/data/icons/vehicle-37/24/Drone-128.png" vertex="1" parent="1">
          <mxGeometry x="-260" y="47" width="78" height="78" as="geometry" />
        </mxCell>
        <mxCell id="RyXJAOycTilbPtWUm33V-13" style="edgeStyle=orthogonalEdgeStyle;rounded=0;orthogonalLoop=1;jettySize=auto;html=1;exitX=0;exitY=0.5;exitDx=0;exitDy=0;strokeWidth=3;flowAnimation=1;fillColor=#dae8fc;gradientColor=#7ea6e0;strokeColor=#6c8ebf;entryX=1;entryY=0.5;entryDx=0;entryDy=0;" edge="1" parent="1" source="RyXJAOycTilbPtWUm33V-3" target="_hx6_GJGES43o-Bzlk7O-4">
          <mxGeometry relative="1" as="geometry">
            <mxPoint x="-20" y="95" as="targetPoint" />
          </mxGeometry>
        </mxCell>
        <mxCell id="RyXJAOycTilbPtWUm33V-16" value="Broadcast" style="text;html=1;align=center;verticalAlign=middle;resizable=0;points=[];autosize=1;strokeColor=none;fillColor=none;" vertex="1" parent="1">
          <mxGeometry x="-30" y="50" width="80" height="30" as="geometry" />
        </mxCell>
        <mxCell id="RyXJAOycTilbPtWUm33V-17" value="Receive&lt;br&gt;&lt;div&gt;Data&lt;/div&gt;" style="text;html=1;align=center;verticalAlign=middle;resizable=0;points=[];autosize=1;strokeColor=none;fillColor=none;" vertex="1" parent="1">
          <mxGeometry x="-100" y="-120" width="70" height="40" as="geometry" />
        </mxCell>
        <mxCell id="RyXJAOycTilbPtWUm33V-40" style="edgeStyle=orthogonalEdgeStyle;rounded=0;orthogonalLoop=1;jettySize=auto;html=1;exitX=0;exitY=0;exitDx=70;exitDy=80;exitPerimeter=0;entryX=0.5;entryY=1;entryDx=0;entryDy=0;strokeWidth=3;fillColor=#ffcd28;gradientColor=#ffa500;strokeColor=#d79b00;flowAnimation=1;" edge="1" parent="1" source="RyXJAOycTilbPtWUm33V-18" target="RyXJAOycTilbPtWUm33V-30">
          <mxGeometry relative="1" as="geometry">
            <Array as="points">
              <mxPoint x="120" y="530" />
              <mxPoint x="420" y="530" />
            </Array>
          </mxGeometry>
        </mxCell>
        <mxCell id="RyXJAOycTilbPtWUm33V-18" value="HISTORY" style="shape=cube;whiteSpace=wrap;html=1;boundedLbl=1;backgroundOutline=1;darkOpacity=0.05;darkOpacity2=0.1;" vertex="1" parent="1">
          <mxGeometry x="50" y="330" width="120" height="80" as="geometry" />
        </mxCell>
        <mxCell id="RyXJAOycTilbPtWUm33V-23" style="edgeStyle=orthogonalEdgeStyle;rounded=0;orthogonalLoop=1;jettySize=auto;html=1;exitX=0.5;exitY=0;exitDx=0;exitDy=0;entryX=1;entryY=0;entryDx=0;entryDy=0;strokeWidth=3;fillColor=#dae8fc;strokeColor=#6c8ebf;flowAnimation=1;gradientColor=#7ea6e0;" edge="1" parent="1" source="RyXJAOycTilbPtWUm33V-21" target="RyXJAOycTilbPtWUm33V-3">
          <mxGeometry relative="1" as="geometry">
            <Array as="points">
              <mxPoint x="645" y="-30" />
              <mxPoint x="194" y="-30" />
            </Array>
          </mxGeometry>
        </mxCell>
        <mxCell id="RyXJAOycTilbPtWUm33V-38" style="edgeStyle=orthogonalEdgeStyle;rounded=0;orthogonalLoop=1;jettySize=auto;html=1;exitX=0.5;exitY=1;exitDx=0;exitDy=0;entryX=1;entryY=0.5;entryDx=0;entryDy=0;flowAnimation=1;strokeWidth=3;fillColor=#ffcd28;gradientColor=#ffa500;strokeColor=#d79b00;" edge="1" parent="1" source="RyXJAOycTilbPtWUm33V-21" target="RyXJAOycTilbPtWUm33V-30">
          <mxGeometry relative="1" as="geometry" />
        </mxCell>
        <mxCell id="RyXJAOycTilbPtWUm33V-21" value="&lt;div&gt;Commands&lt;/div&gt;" style="ellipse;whiteSpace=wrap;html=1;" vertex="1" parent="1">
          <mxGeometry x="590" y="50" width="110" height="90" as="geometry" />
        </mxCell>
        <mxCell id="RyXJAOycTilbPtWUm33V-24" value="Update" style="text;html=1;align=center;verticalAlign=middle;resizable=0;points=[];autosize=1;strokeColor=none;fillColor=none;" vertex="1" parent="1">
          <mxGeometry x="380" y="-92" width="60" height="30" as="geometry" />
        </mxCell>
        <mxCell id="RyXJAOycTilbPtWUm33V-28" style="edgeStyle=orthogonalEdgeStyle;rounded=0;orthogonalLoop=1;jettySize=auto;html=1;exitX=0.5;exitY=1;exitDx=0;exitDy=0;entryX=0;entryY=0;entryDx=50;entryDy=0;entryPerimeter=0;fillColor=#ffcd28;strokeColor=#d79b00;gradientColor=#ffa500;strokeWidth=3;flowAnimation=1;" edge="1" parent="1" source="RyXJAOycTilbPtWUm33V-3" target="RyXJAOycTilbPtWUm33V-18">
          <mxGeometry relative="1" as="geometry" />
        </mxCell>
        <mxCell id="RyXJAOycTilbPtWUm33V-36" style="edgeStyle=orthogonalEdgeStyle;rounded=0;orthogonalLoop=1;jettySize=auto;html=1;exitX=0.5;exitY=0;exitDx=0;exitDy=0;entryX=0.5;entryY=1;entryDx=0;entryDy=0;strokeWidth=4;flowAnimation=1;fillColor=#d5e8d4;gradientColor=#97d077;strokeColor=#82b366;" edge="1" parent="1" source="RyXJAOycTilbPtWUm33V-30" target="RyXJAOycTilbPtWUm33V-34">
          <mxGeometry relative="1" as="geometry" />
        </mxCell>
        <mxCell id="RyXJAOycTilbPtWUm33V-30" value="Performance&lt;br&gt;Metric" style="whiteSpace=wrap;html=1;aspect=fixed;" vertex="1" parent="1">
          <mxGeometry x="380" y="390" width="80" height="80" as="geometry" />
        </mxCell>
        <mxCell id="RyXJAOycTilbPtWUm33V-35" style="edgeStyle=orthogonalEdgeStyle;rounded=0;orthogonalLoop=1;jettySize=auto;html=1;exitX=0.5;exitY=0;exitDx=0;exitDy=0;entryX=0.5;entryY=1;entryDx=0;entryDy=0;strokeWidth=3;flowAnimation=1;fillColor=#d5e8d4;gradientColor=#97d077;strokeColor=#82b366;" edge="1" parent="1" source="RyXJAOycTilbPtWUm33V-34" target="RyXJAOycTilbPtWUm33V-1">
          <mxGeometry relative="1" as="geometry" />
        </mxCell>
        <mxCell id="RyXJAOycTilbPtWUm33V-34" value="Training Strategy" style="whiteSpace=wrap;html=1;aspect=fixed;" vertex="1" parent="1">
          <mxGeometry x="380" y="240" width="80" height="80" as="geometry" />
        </mxCell>
        <mxCell id="RyXJAOycTilbPtWUm33V-37" value="Update&lt;br&gt;Weights" style="text;html=1;align=center;verticalAlign=middle;resizable=0;points=[];autosize=1;strokeColor=none;fillColor=none;" vertex="1" parent="1">
          <mxGeometry x="420" y="170" width="70" height="40" as="geometry" />
        </mxCell>
        <mxCell id="_hx6_GJGES43o-Bzlk7O-1" value="" style="shape=image;html=1;verticalAlign=top;verticalLabelPosition=bottom;labelBackgroundColor=#ffffff;imageAspect=0;aspect=fixed;image=https://cdn1.iconfinder.com/data/icons/vehicle-37/24/Drone-128.png" vertex="1" parent="1">
          <mxGeometry x="-150" y="-13" width="78" height="78" as="geometry" />
        </mxCell>
        <mxCell id="_hx6_GJGES43o-Bzlk7O-2" value="" style="shape=image;html=1;verticalAlign=top;verticalLabelPosition=bottom;labelBackgroundColor=#ffffff;imageAspect=0;aspect=fixed;image=https://cdn1.iconfinder.com/data/icons/vehicle-37/24/Drone-128.png" vertex="1" parent="1">
          <mxGeometry x="-170" y="132" width="78" height="78" as="geometry" />
        </mxCell>
      </root>
    </mxGraphModel>
  </diagram>
</mxfile>
